<?xml version="1.0" encoding="utf-8"?>
<!-- Generator: Adobe Illustrator 26.0.2, SVG Export Plug-In . SVG Version: 6.00 Build 0)  -->
<svg version="1.1" id="Laag_1" xmlns="http://www.w3.org/2000/svg" xmlns:xlink="http://www.w3.org/1999/xlink" x="0px" y="0px"
	 viewBox="0 0 59.9 120.5" style="enable-background:new 0 0 59.9 120.5;" xml:space="preserve">
<style type="text/css">
	.st0{fill:#56AF31;}
	.st1{fill:#222221;}
</style>
<g>
	<path class="st0" d="M31.6,50.1c-1.8,0-3.5,0.4-5,1v6.4c1.3-1.2,3-2,5-2c4,0,7.2,3.2,7.2,7.2S35.6,70,31.6,70c-4,0-7.2-3.2-7.2-7.2
		c0-0.1,0-0.1,0-0.2h0V52.4c0,0,0,0,0,0V25c0,0,21.2-2.9,18.7-24.9c0,0-12.6-2.1-21.4,10.3C12.8-1.9,0.2,0.1,0.2,0.1
		C-2.3,22.2,18.9,25,18.9,25v37.8c0,7,5.7,12.7,12.7,12.7c7,0,12.7-5.7,12.7-12.7C44.2,55.8,38.6,50.1,31.6,50.1z M36.6,6.6
		c-2,10.7-11.8,12.1-11.8,12.1C27.3,8,36.6,6.6,36.6,6.6z M6.6,6.6c0,0,9.3,1.4,11.8,12.1C18.4,18.7,8.6,17.2,6.6,6.6z"/>
	<path class="st1" d="M31.6,42.6c-1.8,0-3.5,0.3-5.1,0.7V49c1.6-0.6,3.3-0.9,5.1-0.9c8.2,0,14.8,6.6,14.8,14.8
		c0,8.2-6.6,14.8-14.8,14.8c-8.2,0-14.8-6.6-14.8-14.8h0V35.5h-5.4v27.3C11.4,74,20.4,83,31.6,83c11.2,0,20.2-9.1,20.2-20.2
		C51.8,51.6,42.7,42.6,31.6,42.6z"/>
	<path class="st1" d="M31.6,35c-1.8,0-3.5,0.2-5.1,0.5v5.6c1.6-0.4,3.4-0.6,5.1-0.6c12.3,0,22.3,10,22.3,22.3
		c0,12.3-10,22.3-22.3,22.3c-12.3,0-22.3-10-22.3-22.3V35.5H3.8v27.3c0,15.3,12.4,27.8,27.8,27.8c15.3,0,27.8-12.4,27.8-27.8
		C59.3,47.5,46.9,35,31.6,35z"/>
</g>
<g>
	<path class="st1" d="M8.2,92.9v8.5c1.5-0.8,2.5-1,3.8-1c4.2,0,7.6,3.6,7.6,7.8c0,4.3-3.6,7.9-7.9,7.9c-2.7,0-5.2-1.4-6.6-3.6
		c-1-1.5-1.2-2.7-1.2-5.4V92.9H8.2z M8.1,108.1c0,2,1.6,3.6,3.6,3.6c1.9,0,3.5-1.6,3.5-3.6c0-2.1-1.6-3.7-3.5-3.7
		S8.1,106.1,8.1,108.1z"/>
	<path class="st1" d="M35.7,110.8c-1.2,3.2-3.9,5.1-7.3,5.1c-4.3,0-7.7-3.4-7.7-7.8c0-4.3,3.4-7.7,7.7-7.7c4,0,7.6,3.2,7.6,6.7
		c0,1.6-1.3,2.7-3.4,2.7h-7.4c0.7,1.4,1.7,2.1,3.1,2.1c1,0,1.6-0.3,2.5-1.1L35.7,110.8L35.7,110.8z M31.4,106.6
		c-0.6-1.5-1.6-2.2-3.1-2.2c-1.5,0-2.7,0.9-3.2,2.2H31.4z"/>
	<g>
		<path class="st1" d="M39.7,98.7c1.3,0,2.4-1.1,2.4-2.4c0-1.3-1.1-2.4-2.5-2.4c-1.3,0-2.4,1.1-2.4,2.4
			C37.2,97.6,38.3,98.7,39.7,98.7z"/>
		<rect x="37.6" y="100.5" class="st1" width="4.3" height="20"/>
	</g>
	<path class="st1" d="M59.9,108.3c0,4.3-3.7,8-8.1,8c-4.5,0-8.1-3.6-8.1-8.1c0-4.5,3.6-8.1,8.1-8.1C56.3,100,59.9,103.7,59.9,108.3z
		 M48.1,108.1c0,2.2,1.6,3.8,3.7,3.8c2,0,3.7-1.7,3.7-3.8c0-2.1-1.7-3.9-3.7-3.9C49.7,104.3,48.1,106,48.1,108.1z"/>
</g>
</svg>
