<svg xmlns="http://www.w3.org/2000/svg" width="183.627" height="289.525" viewBox="0 0 183.627 289.525">
  <g id="Group_7508" data-name="Group 7508" transform="translate(-6325.484 20090.451)">
    <g id="Group_7501" data-name="Group 7501" transform="translate(6331 -19951.574)">
      <path id="Path_14" data-name="Path 14" d="M124.588,432.277V408.163c0-10.845-8.263-18.79-21.134-18.79-11.8,0-20.975,8.978-20.975,22.405,0,10.964,7.23,20.856,20.419,20.856a31.686,31.686,0,0,0,7.151-1.033V420.12a17.07,17.07,0,0,1-6.436,1.311,9.781,9.781,0,0,1-9.852-10.09c0-6.118,4.131-10.964,9.494-10.964,6.157,0,10.051,3.257,10.051,8.263v23.637Zm-50.332,0V401.092h8.819V390.405H74.256v-3.178c0-3.178,1.668-4.211,4.41-4.211h4.41V371.973H78.546c-12.156,0-15.572,8.779-15.572,18.274v42.07H74.256ZM53.758,370.9c-3.774,0-6.714,2.5-6.714,6.992s2.9,6.992,6.714,6.992,6.714-2.5,6.714-6.992c-.04-4.489-2.94-6.992-6.714-6.992M59.4,390.405H48.117v41.871H59.4ZM44.1,432.277V408.163c0-10.845-8.263-18.79-21.134-18.79C11.172,389.373,2,398.351,2,411.778c0,10.964,7.23,20.856,20.419,20.856a31.686,31.686,0,0,0,7.151-1.033V420.12a17.07,17.07,0,0,1-6.436,1.311,9.781,9.781,0,0,1-9.852-10.09c0-6.118,4.131-10.964,9.534-10.964,6.157,0,10.051,3.257,10.051,8.263v23.637Zm-76.114,0V405.74h16.724v26.537h13.03V371.933h-12.99v21.73H-31.97v-21.73H-45v60.344Z" transform="translate(45 -370.9)" fill="#00854c"/>
    </g>
    <path id="Path_2750" data-name="Path 2750" d="M-85.68-8.925V0h-5.835V-25.907h9.142q9.792,0,9.792,8.256a7.922,7.922,0,0,1-2.809,6.314A11.13,11.13,0,0,1-82.9-8.925Zm0-12.5v8.076h2.294q4.661,0,4.661-4.083,0-3.993-4.661-3.993Zm19.223,0a3.334,3.334,0,0,1-2.367-.858,2.765,2.765,0,0,1-.921-2.1,2.667,2.667,0,0,1,.921-2.1,3.445,3.445,0,0,1,2.367-.813,3.437,3.437,0,0,1,2.376.813,2.678,2.678,0,0,1,.912,2.1,2.754,2.754,0,0,1-.912,2.132A3.391,3.391,0,0,1-66.457-21.427ZM-63.639,0h-5.709V-18.5h5.709Zm13.622.452a9.945,9.945,0,0,1-7.272-2.593,9.4,9.4,0,0,1-2.647-7.037,9.4,9.4,0,0,1,2.746-7.181,10.376,10.376,0,0,1,7.425-2.593,9.825,9.825,0,0,1,7.227,2.593A9.216,9.216,0,0,1-39.918-9.5a9.782,9.782,0,0,1-2.7,7.281A10.055,10.055,0,0,1-50.017.452Zm.145-15.031a3.808,3.808,0,0,0-3.144,1.391,6.134,6.134,0,0,0-1.12,3.938q0,5.33,4.3,5.33,4.1,0,4.1-5.474Q-45.735-14.58-49.872-14.58ZM-18.346,0h-5.691V-10.28q0-4.3-3.071-4.3a3.047,3.047,0,0,0-2.439,1.138,4.336,4.336,0,0,0-.958,2.891V0h-5.709V-18.5h5.709v2.927h.072a6.542,6.542,0,0,1,5.944-3.378q6.143,0,6.143,7.624ZM2.791-7.624H-9.277Q-8.988-3.6-4.2-3.6A9.911,9.911,0,0,0,1.165-5.041V-.921A14.1,14.1,0,0,1-5.5.452a9.384,9.384,0,0,1-6.956-2.484,9.385,9.385,0,0,1-2.475-6.928,9.9,9.9,0,0,1,2.674-7.3,8.908,8.908,0,0,1,6.576-2.692,8.085,8.085,0,0,1,6.26,2.4,9.253,9.253,0,0,1,2.213,6.522Zm-5.293-3.5q0-3.975-3.216-3.975a3.07,3.07,0,0,0-2.376,1.138,5.166,5.166,0,0,0-1.219,2.836Zm25.311,3.5H10.74Q11.03-3.6,15.817-3.6a9.911,9.911,0,0,0,5.366-1.445V-.921A14.1,14.1,0,0,1,14.516.452,9.384,9.384,0,0,1,7.561-2.032,9.385,9.385,0,0,1,5.086-8.961a9.9,9.9,0,0,1,2.674-7.3,8.908,8.908,0,0,1,6.576-2.692,8.085,8.085,0,0,1,6.26,2.4,9.253,9.253,0,0,1,2.213,6.522Zm-5.293-3.5q0-3.975-3.216-3.975a3.07,3.07,0,0,0-2.376,1.138A5.166,5.166,0,0,0,10.7-11.129Zm20.758-2.222a4.952,4.952,0,0,0-2.4-.56,3.462,3.462,0,0,0-2.909,1.364,5.951,5.951,0,0,0-1.048,3.713V0H26.205V-18.5h5.709v3.433h.072q1.355-3.758,4.878-3.758a3.676,3.676,0,0,1,1.409.217Zm5.691-8.076a3.334,3.334,0,0,1-2.367-.858,2.765,2.765,0,0,1-.921-2.1,2.667,2.667,0,0,1,.921-2.1,3.445,3.445,0,0,1,2.367-.813,3.437,3.437,0,0,1,2.376.813,2.678,2.678,0,0,1,.912,2.1,2.754,2.754,0,0,1-.912,2.132A3.391,3.391,0,0,1,43.965-21.427ZM46.783,0H41.074V-18.5h5.709ZM69.456,0H63.765V-10.28q0-4.3-3.071-4.3a3.047,3.047,0,0,0-2.439,1.138,4.336,4.336,0,0,0-.958,2.891V0H51.589V-18.5H57.3v2.927h.072a6.542,6.542,0,0,1,5.944-3.378q6.143,0,6.143,7.624ZM92.112-2.114q0,5.149-2.981,7.976T80.495,8.69a13.688,13.688,0,0,1-5.926-1.066V2.818A11.348,11.348,0,0,0,80.332,4.48a6.207,6.207,0,0,0,4.48-1.527A5.478,5.478,0,0,0,86.4-1.192V-2.656H86.33A6.376,6.376,0,0,1,80.567.452a6.932,6.932,0,0,1-5.619-2.493,10.11,10.11,0,0,1-2.078-6.685,11.261,11.261,0,0,1,2.313-7.461,7.55,7.55,0,0,1,6.088-2.764,5.618,5.618,0,0,1,5.059,2.6H86.4V-18.5h5.709ZM86.475-8.889v-1.463a4.5,4.5,0,0,0-1.039-2.99,3.36,3.36,0,0,0-2.7-1.238A3.492,3.492,0,0,0,79.754-13.1,6.966,6.966,0,0,0,78.67-8.925,5.88,5.88,0,0,0,79.7-5.266,3.356,3.356,0,0,0,82.518-3.92a3.494,3.494,0,0,0,2.864-1.364A5.593,5.593,0,0,0,86.475-8.889ZM-76.367,39.783a8.438,8.438,0,0,1-3.812.668q-6.034,0-6.034-6.269V25.709h-3V21.5h3V17.507l5.691-1.626V21.5h4.155v4.209h-4.155v7.479q0,2.891,2.294,2.891a3.868,3.868,0,0,0,1.861-.524ZM-55.392,40h-5.691V29.485q0-4.065-2.963-4.065A3.033,3.033,0,0,0-66.5,26.559a4.39,4.39,0,0,0-.939,2.891V40h-5.709V12.611h5.709V24.246h.072a6.487,6.487,0,0,1,5.691-3.2q6.287,0,6.287,7.588Zm21.138-7.624H-46.322q.289,4.029,5.077,4.029a9.911,9.911,0,0,0,5.366-1.445v4.119a14.1,14.1,0,0,1-6.667,1.373A9.384,9.384,0,0,1-49.5,37.968a9.385,9.385,0,0,1-2.475-6.928,9.9,9.9,0,0,1,2.674-7.3,8.908,8.908,0,0,1,6.576-2.692,8.085,8.085,0,0,1,6.26,2.4,9.253,9.253,0,0,1,2.213,6.522Zm-5.293-3.5q0-3.975-3.216-3.975a3.07,3.07,0,0,0-2.376,1.138,5.166,5.166,0,0,0-1.219,2.836ZM-5.113,18.844h-9.142V25.2h8.4v4.733h-8.4V40H-20.09V14.093H-5.113ZM16.169,40H10.479V37.182h-.09a6.456,6.456,0,0,1-5.655,3.27q-6.432,0-6.432-7.787V21.5H3.993V32.159q0,3.92,3.107,3.92A3.074,3.074,0,0,0,9.557,35a4.335,4.335,0,0,0,.921-2.918V21.5h5.691Zm15.989-.217a8.438,8.438,0,0,1-3.812.668q-6.034,0-6.034-6.269V25.709h-3V21.5h3V17.507L28,15.881V21.5h4.155v4.209H28v7.479Q28,36.08,30.3,36.08a3.868,3.868,0,0,0,1.861-.524ZM52.953,40H47.262V37.182h-.09a6.456,6.456,0,0,1-5.655,3.27q-6.432,0-6.432-7.787V21.5h5.691V32.159q0,3.92,3.107,3.92A3.074,3.074,0,0,0,46.34,35a4.335,4.335,0,0,0,.921-2.918V21.5h5.691ZM69.827,26.649a4.952,4.952,0,0,0-2.4-.56,3.462,3.462,0,0,0-2.909,1.364,5.951,5.951,0,0,0-1.048,3.713V40H57.758V21.5h5.709v3.433h.072q1.355-3.758,4.878-3.758a3.676,3.676,0,0,1,1.409.217Zm19.132,5.727H76.891Q77.18,36.4,81.967,36.4a9.911,9.911,0,0,0,5.366-1.445v4.119a14.1,14.1,0,0,1-6.667,1.373,9.384,9.384,0,0,1-6.956-2.484,9.385,9.385,0,0,1-2.475-6.928,9.9,9.9,0,0,1,2.674-7.3,8.908,8.908,0,0,1,6.576-2.692,8.085,8.085,0,0,1,6.26,2.4,9.253,9.253,0,0,1,2.213,6.522Zm-5.293-3.5q0-3.975-3.216-3.975a3.07,3.07,0,0,0-2.376,1.138,5.166,5.166,0,0,0-1.219,2.836Z" transform="translate(6417 -19841.377)" fill="#007840" opacity="0.99"/>
    <rect id="Rectangle_3928" data-name="Rectangle 3928" width="171" height="13" transform="translate(6331 -19976)" fill="#00854c"/>
    <g id="Group_7502" data-name="Group 7502" transform="translate(6329.542 -20090.451)">
      <g id="Group_261" data-name="Group 261" transform="translate(2.189 0)" opacity="0.92">
        <g id="Group_260" data-name="Group 260">
          <path id="Path_11" data-name="Path 11" d="M-38.3,26.487s38.375-5.1,77.268,35.307c35.147,36.5,23.073,79.939,23.073,79.939s-35.108-4.224-68.82-40.368C-39.18,66.616-38.3,26.487-38.3,26.487" transform="translate(38.306 -26.28)" fill="#57c168"/>
        </g>
      </g>
      <g id="Group_263" data-name="Group 263" transform="translate(0 60.248)">
        <g id="Group_262" data-name="Group 262">
          <path id="Path_12" data-name="Path 12" d="M-43.8,177.639s37.538-2.152,55.869,8.727c21.957,12.991,46.465,46.027,46.465,46.027s-45.787.757-67.107-9.763C-31.686,211.193-43.8,177.639-43.8,177.639" transform="translate(43.8 -177.466)" fill="#81d18e"/>
        </g>
      </g>
      <g id="Group_265" data-name="Group 265" transform="translate(80.72 23.719)">
        <g id="Group_264" data-name="Group 264">
          <path id="Path_13" data-name="Path 13" d="M179.619,85.8s-20.283,24.428-20.841,45.429c-.677,26.261,21.678,46.266,21.678,46.266s17.215-29.17,17.374-48.3c.2-19.845-18.211-43.4-18.211-43.4" transform="translate(-158.762 -85.8)" fill="#57c168"/>
        </g>
      </g>
      <path id="Path_10" data-name="Path 10" d="M277.416,28.8S234.18,43.186,220.631,67.175c-16.338,28.931-9.484,76.073-9.484,76.073s41.324-12.672,55.072-42.121c13.788-29.449,11.2-72.328,11.2-72.328" transform="translate(-108.693 -27.796)" fill="#00854c"/>
      <path id="Intersection_2" data-name="Intersection 2" d="M-6295.827,20165.539a118.8,118.8,0,0,1-11.411-14.293c11.413.889,24.724,3.105,33.566,8.355,21.958,12.986,46.466,46.023,46.466,46.023s-.51.012-1.449.014C-6235.964,20204.3-6266.426,20197.059-6295.827,20165.539Z" transform="translate(6329.542 -20090.451)" fill="#00854c"/>
    </g>
    <path id="Intersection_1" data-name="Intersection 1" d="M78.546,69.148c.212-7.964,3.259-16.419,6.962-23.85,23.27,31.847,15.985,65.507,14.949,69.714-.151.263-.233.4-.233.4S77.868,95.409,78.546,69.148Z" transform="translate(6331.731 -20090.451)" fill="#1a915e"/>
  </g>
</svg>
