<svg xmlns="http://www.w3.org/2000/svg" width="1358" height="372"><path d="M0 0 C0.66 0 1.32 0 2 0 C5.52252534 10.0849366 9.00298782 20.1511493 11.4375 30.5625 C11.68258301 31.60458618 11.68258301 31.60458618 11.93261719 32.66772461 C12.65490156 35.89829829 13 38.66463187 13 42 C14.258125 42.061875 15.51625 42.12375 16.8125 42.1875 C55.38014107 46.20157235 90.03631336 69.13755502 114.72558594 98.01855469 C140.80037183 130.21310105 152.20112664 172.12728128 148.3125 213.125 C146.80081146 227.3500037 143.53927562 241.78619728 138 255 C138.79664063 255.22429687 139.59328125 255.44859375 140.4140625 255.6796875 C145.02076296 257.37583647 149.11719741 259.70070092 153.375 262.125 C154.20644531 262.59292969 155.03789062 263.06085938 155.89453125 263.54296875 C157.93234954 264.69070549 159.96735569 265.84313282 162 267 C161.67 267.66 161.34 268.32 161 269 C160.42556152 268.76812988 159.85112305 268.53625977 159.25927734 268.29736328 C156.63192654 267.23805864 154.00347633 266.18150857 151.375 265.125 C150.47136719 264.76019531 149.56773437 264.39539063 148.63671875 264.01953125 C144.12815356 262.20952333 139.636363 260.46330394 135 259 C134.92652344 259.6496875 134.85304688 260.299375 134.77734375 260.96875 C133.69275145 265.19811493 131.69146874 268.70736291 129.5625 272.5 C128.89359741 273.69496094 128.89359741 273.69496094 128.21118164 274.9140625 C121.8399534 286.04386125 113.80471295 295.69432924 105 305 C104.23171875 305.82113281 103.4634375 306.64226562 102.671875 307.48828125 C76.86846822 334.24891119 38.52632671 351.37293814 1.32421875 352.203125 C-13.00545836 352.35039911 -26.97193183 352.24503946 -41 349 C-41.7513623 348.82839355 -42.50272461 348.65678711 -43.27685547 348.47998047 C-58.21562021 344.95106391 -71.75483909 339.03475786 -85.12963867 331.5769043 C-88.04517848 329.96210026 -90.69560151 328.57254429 -94 328 C-99.7048233 335.16137393 -105.33820284 342.36365377 -110.75 349.75 C-111.20955078 350.37704834 -111.66910156 351.00409668 -112.14257812 351.65014648 C-115.29572027 355.97775445 -118.33717965 360.37048901 -121.26953125 364.8515625 C-123 367 -123 367 -129 372 C-138.57 368.04 -148.14 364.08 -158 360 C-153.55055622 342.20222489 -136.04346251 324.15165888 -123.84765625 311.2890625 C-121.94657348 308.93380985 -120.96287287 306.85333007 -120 304 C-120.928125 303.154375 -121.85625 302.30875 -122.8125 301.4375 C-149.68639052 274.40073742 -163.03810619 233.9513618 -163.375 196.5 C-163.15663748 172.22536648 -157.70405214 148.77720953 -147 127 C-146.45601562 125.88367188 -145.91203125 124.76734375 -145.3515625 123.6171875 C-126.64271131 87.16566992 -93.56019696 60.42103899 -54.921875 47.6328125 C-42.7142689 43.74902454 -29.87256628 40.6790305 -17 41 C-16.86029785 40.45214844 -16.7205957 39.90429688 -16.57666016 39.33984375 C-14.32963844 31.19294113 -10.87990861 23.65866295 -7.375 16 C-6.77026388 14.66562251 -6.16609326 13.33098859 -5.5625 11.99609375 C-1.37008811 2.74017622 -1.37008811 2.74017622 0 0 Z M-105 87 C-106.34863899 88.15233426 -107.70259658 89.29848109 -109.0625 90.4375 C-133.20340377 111.68149532 -148.19574886 143.5506329 -153 175 C-153.18304688 176.19238281 -153.36609375 177.38476562 -153.5546875 178.61328125 C-155.50857317 194.91321168 -154.76414544 212.02831593 -151 228 C-150.83371094 228.72944824 -150.66742188 229.45889648 -150.49609375 230.21044922 C-144.32759394 256.5807859 -130.79157613 278.86742701 -113 299 C-108.79983432 296.34112319 -105.3306169 293.54365532 -101.75 290.0625 C-91.32985676 280.28039271 -79.53082342 272.27504306 -67.1875 265.125 C-65.9967688 264.42201782 -65.9967688 264.42201782 -64.78198242 263.70483398 C-61.30075501 261.69296756 -58.02180587 259.89920407 -54.16015625 258.74609375 C-50.0399288 257.31604917 -47.97030017 256.23953791 -45 253 C-41.06384507 244.19260017 -39.69446869 234.43508308 -38 225 C-37.51479063 222.50251325 -37.02912012 220.00511605 -36.54296875 217.5078125 C-31.91176172 192.73207576 -30.8716367 168.2244682 -31.0151062 143.10513306 C-31.18329778 111.25509447 -28.75915785 80.76474704 -20 50 C-49.47690975 48.44543681 -84.42615257 67.20743791 -105 87 Z M15 51 C15.06058594 51.68175293 15.12117188 52.36350586 15.18359375 53.06591797 C21.33188729 123.92500097 7.47514446 185.2710626 -33.64453125 243.92578125 C-35.15772029 246.04941437 -35.15772029 246.04941437 -36 249 C-34.53643406 248.56127887 -33.07289908 248.12245449 -31.609375 247.68359375 C-30.69220703 247.4088623 -29.77503906 247.13413086 -28.83007812 246.85107422 C-27.07246058 246.32251532 -25.31576506 245.79086734 -23.56054688 245.25439453 C-4.7072938 239.50235605 14.69650958 234.96907884 34.49609375 234.76171875 C35.27854965 234.75187958 36.06100555 234.74204041 36.86717224 234.73190308 C69.46004854 234.40695881 99.47025624 239.14856101 130 251 C143.55646567 210.24285887 143.55993903 170.24673644 125 131 C112.40650959 105.87032019 93.39889066 86.17238466 70 71 C69.01386719 70.3503125 68.02773437 69.700625 67.01171875 69.03125 C52.71753516 60.13529416 32.12615018 51 15 51 Z M-60 295 C-60.94617188 295.74121094 -61.89234375 296.48242188 -62.8671875 297.24609375 C-68.98896718 302.13843014 -74.55111173 307.37604705 -80 313 C-80.99830827 313.96009551 -81.99797616 314.91878297 -83 315.875 C-85.20741867 317.92239437 -85.20741867 317.92239437 -86 321 C-52.35216562 340.203057 -12.40627455 350.26647145 26 340 C27.14903809 339.70996094 27.14903809 339.70996094 28.32128906 339.4140625 C47.28652596 334.55079637 64.19886861 326.52882797 80 315 C80.85335937 314.39027344 81.70671875 313.78054688 82.5859375 313.15234375 C101.45973621 298.88726333 117.22367355 279.58497298 127 258 C127 257.34 127 256.68 127 256 C62.12258612 238.41973792 -7.42722437 253.4836159 -60 295 Z " fill="#0071B9" transform="translate(163,0)"></path><path d="M0 0 C0.495 7.92 0.495 7.92 1 16 C2.03125 14.989375 3.0625 13.97875 4.125 12.9375 C11.68452916 6.331304 21.92760435 1.05119879 32 0 C32.68964844 -0.08121094 33.37929688 -0.16242188 34.08984375 -0.24609375 C43.60738193 -0.81404811 52.526059 2.20940557 59.625 8.5 C62.37341251 11.16623406 64.77604363 13.88362801 67 17 C67.71542969 16.41992188 68.43085937 15.83984375 69.16796875 15.2421875 C80.55309647 6.31671868 93.95882848 -1.66244527 109 0 C119.67445195 1.74008189 127.4663252 5.14540897 133.9375 14 C138.54866725 20.80228927 139.29071035 26.76438725 139.22705078 34.76904297 C139.22734283 35.73552261 139.22763489 36.70200226 139.22793579 37.69776917 C139.22654699 40.87933456 139.21100684 44.06066322 139.1953125 47.2421875 C139.19158078 49.45321525 139.18873456 51.66424466 139.18673706 53.87527466 C139.17911319 59.68510531 139.15947532 65.49483544 139.1373291 71.30462646 C139.11684388 77.23692464 139.10772961 83.16923912 139.09765625 89.1015625 C139.07622831 100.7344262 139.04105624 112.367189 139 124 C132.07 124 125.14 124 118 124 C117.98018066 121.50252197 117.96036133 119.00504395 117.93994141 116.43188477 C117.87287724 108.15769767 117.79524037 99.88363373 117.71247292 91.60958958 C117.66263884 86.59562989 117.61630808 81.58168997 117.578125 76.56762695 C117.54110887 71.72404002 117.49470554 66.88062378 117.44193649 62.03718376 C117.42347899 60.19416247 117.40833953 58.35110471 117.39665604 56.50802803 C117.37964471 53.91606487 117.35057565 51.32448531 117.31884766 48.73266602 C117.31668747 47.97956146 117.31452728 47.22645691 117.31230164 46.45053101 C117.17810354 37.80537739 115.96161459 29.92060951 109.58203125 23.59375 C103.47075812 18.18943649 98.15605766 17.54926173 90.23046875 17.68359375 C83.15164079 18.37692515 78.63033241 21.70819153 74 27 C73.46880051 27.52611877 72.93760101 28.05223755 72.39030457 28.59429932 C70.25985405 32.28070471 70.56060047 35.80379562 70.56762695 39.99121094 C70.5574353 40.89887711 70.54724365 41.80654327 70.53674316 42.74171448 C70.50656938 45.73933042 70.49734046 48.73662703 70.48828125 51.734375 C70.47143783 53.81375189 70.45328805 55.89311858 70.43388367 57.97247314 C70.38634106 63.44359143 70.35655917 68.91466835 70.33044434 74.38592529 C70.30066038 79.96960622 70.2541226 85.55314457 70.20898438 91.13671875 C70.1229026 102.09108774 70.05712732 113.0454417 70 124 C62.74 124 55.48 124 48 124 C47.9906543 121.35105713 47.98130859 118.70211426 47.97167969 115.97290039 C47.93784249 107.19973749 47.882256 98.42680814 47.81609726 89.65383244 C47.77666607 84.33716193 47.74445615 79.02065598 47.72900391 73.70385742 C47.71380872 68.56838473 47.67931213 63.43336455 47.63169098 58.2980938 C47.61690672 56.34343853 47.60896069 54.38871864 47.60811615 52.43400764 C47.60573583 49.68607019 47.57857114 46.93937255 47.54589844 44.19165039 C47.5509288 43.39179214 47.55595917 42.5919339 47.56114197 41.76783752 C47.44534286 35.43195389 45.87377741 29.34609011 41.65911484 24.43873692 C35.01328413 18.50588485 28.79583223 17.41263367 20.15234375 17.66015625 C12.35684615 18.50056305 8.22851792 22.30270046 3.34765625 28.1953125 C0.40383563 32.13747229 0.82666963 35.93050874 0.79467773 40.67236328 C0.77982834 42.0187941 0.77982834 42.0187941 0.76467896 43.39242554 C0.733015 46.36836075 0.70828719 49.34431194 0.68359375 52.3203125 C0.66302845 54.38012107 0.64203209 56.43992539 0.62062073 58.49972534 C0.56535628 63.92812658 0.5159663 69.35656617 0.46777344 74.78503418 C0.41759032 80.32156804 0.36188763 85.85804601 0.30664062 91.39453125 C0.19900555 102.26297492 0.09808235 113.13146592 0 124 C-6.93 124 -13.86 124 -21 124 C-21.00410889 120.84131348 -21.00821777 117.68262695 -21.01245117 114.42822266 C-21.02967865 103.97070744 -21.07423071 93.5134357 -21.13209057 83.05607033 C-21.16632395 76.71815927 -21.19146496 70.38048834 -21.19555664 64.04248047 C-21.19984727 57.92143854 -21.22837463 51.80093797 -21.27343178 45.68006516 C-21.28638214 43.34943169 -21.29072324 41.01873336 -21.28615379 38.68806839 C-21.28123058 35.41336466 -21.30741891 32.14023272 -21.34057617 28.86572266 C-21.33195053 27.91049713 -21.32332489 26.95527161 -21.31443787 25.97109985 C-21.43269024 18.96569837 -23.44208394 14.00039377 -27 8 C-21.25644236 5.7565256 -15.51162246 3.92524327 -9.5625 2.3125 C-8.74845703 2.08755859 -7.93441406 1.86261719 -7.09570312 1.63085938 C-1.15223689 0 -1.15223689 0 0 0 Z " fill="#0071B9" transform="translate(524,143)"></path><path d="M0 0 C6.8537344 5.49930593 11.32182962 11.53703138 12.640625 20.31640625 C12.89694832 24.97219826 12.9397082 29.62106759 12.94558525 34.28239632 C12.94928159 36.64167137 12.96609422 39.00053819 12.98634338 41.35972595 C13.04145807 48.06176146 13.07244851 54.7638542 13.09692383 61.46606445 C13.1128444 65.57974903 13.1431011 69.69313819 13.18168831 73.80666924 C13.19328891 75.36665132 13.19926822 76.92668628 13.19936943 78.4867115 C13.19956265 80.67122224 13.21790982 82.85492259 13.23999023 85.03930664 C13.24506088 86.27870499 13.25013153 87.51810333 13.25535583 88.7950592 C13.71014503 92.95181697 14.73411618 95.60815059 16.640625 99.31640625 C18.69737452 100.73018178 18.69737452 100.73018178 21.078125 101.19140625 C22.22087891 101.49691406 22.22087891 101.49691406 23.38671875 101.80859375 C24.13050781 101.97617188 24.87429688 102.14375 25.640625 102.31640625 C26.97409231 102.64920322 28.30747049 102.98235842 29.640625 103.31640625 C29.18527401 104.87977798 28.72619724 106.44206474 28.265625 108.00390625 C27.88277344 109.30908203 27.88277344 109.30908203 27.4921875 110.640625 C26.65905649 113.25849078 25.69202846 115.77932398 24.640625 118.31640625 C5.14124451 119.17772858 5.14124451 119.17772858 -1.97265625 112.890625 C-4.75769762 109.85453764 -5.71329531 107.29383433 -6.359375 103.31640625 C-7.14699219 103.89648438 -7.93460938 104.4765625 -8.74609375 105.07421875 C-22.48184072 114.99826401 -36.01157665 121.79003643 -53.359375 120.31640625 C-62.61670853 118.46271956 -70.56654915 114.509537 -76.2109375 106.78125 C-82.28014307 97.01586947 -83.13977736 86.02858816 -80.55859375 74.84765625 C-75.16956941 60.47692468 -62.66336667 53.43770255 -49.359375 47.31640625 C-36.69919531 42.03988813 -23.04650957 39.83615591 -9.359375 40.31640625 C-9.75941182 37.79193146 -10.17876516 35.2731958 -10.609375 32.75390625 C-10.77373047 31.69719727 -10.77373047 31.69719727 -10.94140625 30.61914062 C-12.06026452 24.22987103 -14.03184193 19.18855242 -19.234375 15.00390625 C-25.21472235 11.77451868 -30.30980725 10.95655887 -36.984375 11.00390625 C-38.17317261 11.00910278 -38.17317261 11.00910278 -39.38598633 11.0144043 C-48.7653026 11.18659785 -56.85027546 13.51446816 -65.359375 17.31640625 C-66.349375 17.31640625 -67.339375 17.31640625 -68.359375 17.31640625 C-69.349375 14.01640625 -70.339375 10.71640625 -71.359375 7.31640625 C-50.44761192 -3.21826019 -21.81302218 -15.35160175 0 0 Z M-52.921875 61.50390625 C-58.90394919 68.40629954 -60.04645483 74.94774495 -59.734375 84.0078125 C-58.98534576 90.61643511 -56.75689944 94.46427526 -51.609375 98.62890625 C-43.86184434 103.85564109 -36.73174614 105.44210265 -27.359375 104.31640625 C-21.47504916 102.54811139 -16.6327516 98.64387623 -12.359375 94.31640625 C-11.83859375 93.79916992 -11.3178125 93.28193359 -10.78125 92.74902344 C-8.71588146 89.21548427 -8.98838946 85.80588964 -9.06640625 81.83203125 C-9.07277351 80.60864044 -9.07277351 80.60864044 -9.07926941 79.36053467 C-9.09602785 76.76215241 -9.13367403 74.16455306 -9.171875 71.56640625 C-9.18692554 69.80209456 -9.2006133 68.03777067 -9.21289062 66.2734375 C-9.24592199 61.9541266 -9.29768414 57.63539905 -9.359375 53.31640625 C-23.12441032 53.20016817 -41.26861581 53.20060118 -52.921875 61.50390625 Z " fill="#0071B9" transform="translate(755.359375,149.68359375)"></path><path d="M0 0 C33.66 0 67.32 0 102 0 C102 7.26 102 14.52 102 22 C89.13 22 76.26 22 63 22 C63 67.54 63 113.08 63 160 C54.75 160 46.5 160 38 160 C38 114.46 38 68.92 38 22 C25.46 22 12.92 22 0 22 C0 14.74 0 7.48 0 0 Z " fill="#0071B9" transform="translate(348,108)"></path><path d="M0 0 C12.27315179 10.03178454 21.79022477 22.94012289 24 39 C25.78516201 59.35162811 22.23770378 76.14320213 8.9375 92.1875 C-4.32583498 106.14419651 -24.65803372 114.76278669 -43.75 115.3125 C-61.14917142 114.9735551 -76.10166306 109.0978205 -88.375 96.8203125 C-100.76362901 83.5099105 -105.71697187 67.98405927 -105.24609375 50.02734375 C-104.44349618 33.22071101 -96.5261575 18.87059039 -84.4375 7.4375 C-60.51354586 -12.36647769 -26.50647939 -18.69507548 0 0 Z M-75.2890625 13.328125 C-84.86086663 24.72825126 -89.79235451 38.22332315 -89.28515625 53.21875 C-87.69755267 68.70332188 -81.45212044 81.77200663 -69.6171875 92.07421875 C-57.28787156 101.21218442 -44.12434311 104.27972461 -29 103 C-20.16246539 101.41744256 -13.47916876 98.18639689 -7 92 C-6.37480469 91.41476563 -5.74960938 90.82953125 -5.10546875 90.2265625 C4.99697468 79.79397386 8.42067433 65.99551278 8.36572266 51.93945312 C8.007123 35.84523731 0.40533884 22.96886165 -11 12 C-29.08216417 -3.02012211 -58.38445772 -3.86495427 -75.2890625 13.328125 Z " fill="#0071B9" transform="translate(1334,155)"></path><path d="M0 0 C-0.56825653 5.54050113 -2.62886517 10.03715966 -5 15 C-8.50139542 13.70089569 -11.49156386 12.14758587 -14.625 10.125 C-28.61412383 1.6152956 -45.18993827 -1.36362524 -61.25 2.125 C-72.53212176 5.36560944 -80.8240909 11.87311513 -86.7578125 22 C-93.66394566 35.34518486 -95.76360216 48.94645689 -92.06640625 63.65234375 C-87.60166498 77.66803338 -78.89730162 88.77289805 -66 96 C-52.00522418 102.1780437 -35.48974642 103.52080065 -21 98 C-17.7 96.35 -14.4 94.7 -11 93 C-10.67 83.1 -10.34 73.2 -10 63 C-24.52 63 -39.04 63 -54 63 C-51 53 -51 53 -50 51 C-31.52 51 -13.04 51 6 51 C6.268125 58.095 6.53625 65.19 6.8125 72.5 C6.93085205 74.72427734 7.0492041 76.94855469 7.17114258 79.24023438 C7.59204658 92.78049205 7.59204658 92.78049205 4.77774048 96.70397949 C1.32107646 99.82537575 -2.66371659 101.369762 -7 103 C-8.99137538 104.06072424 -10.97283799 105.14057899 -12.9375 106.25 C-21.58306328 110.45254533 -31.34234641 113.58798406 -41 114 C-42.14726563 114.06316406 -43.29453125 114.12632812 -44.4765625 114.19140625 C-62.91343869 114.89180155 -78.25738576 109.51176837 -92.421875 97.4921875 C-104.69127797 85.63176463 -110.73702491 70.32107137 -111.25 53.4375 C-111.08589421 37.06794715 -104.97808042 21.25893014 -93.75 9.25 C-67.42290673 -15.21734276 -30.42027059 -18.66698423 0 0 Z " fill="#0071B9" transform="translate(1133,156)"></path><path d="M0 0 C7.3830989 -0.10183187 14.76601512 -0.17164658 22.1496582 -0.21972656 C24.65884164 -0.23978062 27.16797869 -0.26703085 29.67700195 -0.30175781 C33.29389933 -0.35054754 36.9101761 -0.37303182 40.52734375 -0.390625 C41.64020248 -0.41127014 42.75306122 -0.43191528 43.89964294 -0.45318604 C54.37584671 -0.45617081 62.26877629 2.95382143 70 10 C76.59207715 16.92018958 79.08370545 24.53292702 79.375 34 C79.04672652 44.66888797 75.76052168 52.51378887 68.03125 59.875 C62.28485043 64.70530688 56.00588958 67.42761753 49 70 C50.051875 71.23363281 50.051875 71.23363281 51.125 72.4921875 C56.19032236 78.44685496 61.19692028 84.43230027 66.0546875 90.55859375 C68.09660672 93.12124338 70.16961644 95.65599383 72.25 98.1875 C76.0420736 102.81635341 79.81151531 107.46282478 83.5625 112.125 C84.0997168 112.78910889 84.63693359 113.45321777 85.19042969 114.13745117 C89 118.88454261 89 118.88454261 89 120 C71.61647969 121.45276563 71.61647969 121.45276563 66.27734375 118.48828125 C64.21648592 116.12113881 62.63791352 113.67756909 61 111 C59.31037233 108.8147117 57.60350107 106.65367751 55.875 104.5 C54.94163538 103.30161615 54.00937964 102.10236798 53.078125 100.90234375 C49.1098002 95.83243076 44.98725577 90.88910851 40.85888672 85.94921875 C40.29959473 85.27632813 39.74030273 84.6034375 39.1640625 83.91015625 C38.6165332 83.26062988 38.06900391 82.61110352 37.50488281 81.94189453 C36 80 36 80 34.86230469 77.97607422 C33.68050705 75.73246246 33.68050705 75.73246246 31 73 C27.37 72.67 23.74 72.34 20 72 C20 87.84 20 103.68 20 120 C14.72 120 9.44 120 4 120 C3.99413376 118.58512299 3.98826752 117.17024597 3.98222351 115.7124939 C3.92502135 102.38142402 3.85244958 89.05051216 3.76428509 75.71961021 C3.71935207 68.86598627 3.67993175 62.012414 3.65356445 55.15869141 C3.62810508 48.54501592 3.58718352 41.93155271 3.53681374 35.31801224 C3.52012329 32.79427577 3.50862262 30.2704995 3.50238609 27.74671555 C3.49276904 24.21289679 3.46473691 20.67966954 3.43237305 17.14599609 C3.43380814 16.10158356 3.43524323 15.05717102 3.4367218 13.98110962 C3.36639355 8.55447993 3.0147421 4.71431924 0 0 Z M20 12 C20 27.84 20 43.68 20 60 C24.62 60.103125 29.24 60.20625 34 60.3125 C35.44117188 60.35802002 36.88234375 60.40354004 38.3671875 60.45043945 C45.7970332 60.5305916 51.46332589 60.33310612 57 55 C58.88251278 52.80028932 58.88251278 52.80028932 59.9375 50.4375 C60.50791016 49.32181641 60.50791016 49.32181641 61.08984375 48.18359375 C63.90400064 41.4320328 63.88929004 34.74839431 61.4375 27.875 C57.36512686 18.70504091 52.22670782 16.10075903 43 12 C35.41 12 27.82 12 20 12 Z " fill="#0071B9" transform="translate(1146,147)"></path><path d="M0 0 C11.85304667 -0.40628923 23.91157478 2.08858116 34.62109375 7.16015625 C34.0123362 11.76432251 32.77386419 15.72498949 31.05859375 20.03515625 C30.60355469 21.18757813 30.14851562 22.34 29.6796875 23.52734375 C29.15568359 24.83058594 29.15568359 24.83058594 28.62109375 26.16015625 C24.12884214 24.7039126 19.81344683 23.01985874 15.4765625 21.16015625 C3.48627503 16.96109525 -12.17845675 15.52515074 -24.0234375 20.77734375 C-34.28898053 26.80388145 -40.35768814 35.81888804 -43.8359375 47.0546875 C-47.15512602 59.92549767 -46.04077708 73.3717394 -39.65625 85.12890625 C-31.80667723 97.61140729 -20.84988244 106.15502672 -6.37890625 109.47265625 C7.21460084 111.56104421 18.98111826 108.9142004 31.62109375 104.16015625 C32.94109375 103.83015625 34.26109375 103.50015625 35.62109375 103.16015625 C36.11609375 108.60515625 36.11609375 108.60515625 36.62109375 114.16015625 C33.97983845 115.60663016 31.33357839 117.04232981 28.68359375 118.47265625 C27.94818359 118.87677734 27.21277344 119.28089844 26.45507812 119.69726562 C10.73102115 128.14293815 -8.93532066 130.09476267 -26.234375 125.3203125 C-43.0324746 119.12275277 -56.33939218 108.34050429 -64.37890625 92.16015625 C-71.28335122 75.00423619 -70.88367101 57.42369617 -63.92578125 40.3359375 C-61.37217639 35.09330934 -58.09480891 30.63367013 -54.37890625 26.16015625 C-53.86972656 25.5259375 -53.36054687 24.89171875 -52.8359375 24.23828125 C-40.47027953 10.37857205 -18.08609325 1.21761876 0 0 Z " fill="#0071B9" transform="translate(848.37890625,142.83984375)"></path><path d="M0 0 C5.61 0 11.22 0 17 0 C22.35565145 11.42066071 27.61285283 22.88254206 32.8125 34.375 C33.21885681 35.27252991 33.62521362 36.17005981 34.04388428 37.0947876 C41.06521514 52.61266214 47.95988013 68.18397429 54.77270508 83.79443359 C55.4656367 85.381194 56.15858886 86.96794544 56.8515625 88.5546875 C57.18465927 89.31856781 57.51775604 90.08244812 57.86094666 90.86947632 C59.71813273 95.11609236 61.60476234 99.34771709 63.52246094 103.56738281 C63.939664 104.48641388 64.35686707 105.40544495 64.78671265 106.35232544 C65.59646448 108.13194118 66.40951233 109.91006175 67.22622681 111.68649292 C67.58904755 112.48362701 67.95186829 113.28076111 68.32568359 114.10205078 C68.64942963 114.807742 68.97317566 115.51343323 69.30673218 116.24050903 C70 118 70 118 70 120 C64.39 120 58.78 120 53 120 C48.36551729 110.98382454 44.00143951 101.94031271 40 92.625 C39.40360718 91.24308472 39.40360718 91.24308472 38.79516602 89.83325195 C38.42963623 88.97304443 38.06410645 88.11283691 37.6875 87.2265625 C37.36136719 86.45908691 37.03523437 85.69161133 36.69921875 84.90087891 C36 83 36 83 36 81 C18.51 81 1.02 81 -17 81 C-17.99 83.97 -18.98 86.94 -20 90 C-20.79683876 91.82219622 -21.63003798 93.62940171 -22.515625 95.41015625 C-22.96164062 96.33763672 -23.40765625 97.26511719 -23.8671875 98.22070312 C-24.79360647 100.12457263 -25.73124639 102.02302047 -26.6796875 103.91601562 C-27.12054687 104.84220703 -27.56140625 105.76839844 -28.015625 106.72265625 C-28.42071289 107.54515869 -28.82580078 108.36766113 -29.24316406 109.21508789 C-30.41204846 112.81940684 -30.41204846 112.81940684 -29 120 C-35.27 120 -41.54 120 -48 120 C-41.87528858 105.60968704 -35.61722602 91.28452349 -29.25 77 C-28.37076174 75.02453455 -27.49161247 73.04902949 -26.61254883 71.07348633 C-22.19445035 61.14845804 -17.76577609 51.22821417 -13.31591797 41.31738281 C-12.25125148 38.94415023 -11.18897575 36.5698433 -10.12939453 34.19433594 C-8.00744486 29.43987111 -5.87152883 24.69909302 -3.62109375 20.00390625 C-0.27388866 12.92952197 2.09230497 7.81127189 0 0 Z M9 22 C6.14651483 28.36976337 3.29877586 34.74207213 0.45507812 41.11621094 C-0.51364109 43.28575188 -1.48368986 45.45469966 -2.45507812 47.62304688 C-3.84852832 50.73413772 -5.2372329 53.84730822 -6.625 56.9609375 C-7.28121338 58.42193375 -7.28121338 58.42193375 -7.95068359 59.91244507 C-8.35109863 60.81322784 -8.75151367 61.71401062 -9.1640625 62.64208984 C-9.51936035 63.43706879 -9.8746582 64.23204773 -10.24072266 65.05111694 C-11.12100621 66.96199967 -11.12100621 66.96199967 -11 69 C2.53 69 16.06 69 30 69 C25.80292494 58.05665194 25.80292494 58.05665194 21.23046875 47.29296875 C20.74166985 46.18856194 20.74166985 46.18856194 20.24299622 45.06184387 C19.22744777 42.7690735 18.20758165 40.47825649 17.1875 38.1875 C16.48733942 36.6088529 15.78746782 35.03007759 15.08789062 33.45117188 C13.39524534 29.63263269 11.69873215 25.81583501 10 22 C9.67 22 9.34 22 9 22 Z " fill="#0071B9" transform="translate(965,147)"></path><path d="M0 0 C0 40.92 0 81.84 0 124 C-7.26 124 -14.52 124 -22 124 C-22.01401855 119.19296509 -22.01401855 119.19296509 -22.02832031 114.28881836 C-22.06210103 103.69558959 -22.11765628 93.1025554 -22.18390274 82.50948238 C-22.22339657 76.08744732 -22.25557593 69.66554977 -22.27099609 63.2434082 C-22.28614977 57.04462852 -22.32057334 50.84622685 -22.36830902 44.64761543 C-22.38313595 42.28380177 -22.39104176 39.91993415 -22.39188385 37.55607414 C-22.39425119 34.2426215 -22.42131412 30.93021546 -22.45410156 27.61694336 C-22.4490712 26.64158127 -22.44404083 25.66621918 -22.43885803 24.66130066 C-22.53280721 18.51675896 -23.65877203 15.13951486 -27 10 C-27 9.01 -27 8.02 -27 7 C-22.87617911 5.82913737 -18.75075687 4.66402073 -14.625 3.5 C-12.8615625 2.99919922 -12.8615625 2.99919922 -11.0625 2.48828125 C-9.94101562 2.17246094 -8.81953125 1.85664063 -7.6640625 1.53125 C-6.10872803 1.09135742 -6.10872803 1.09135742 -4.52197266 0.64257812 C-2 0 -2 0 0 0 Z " fill="#0071B9" transform="translate(489,143)"></path><path d="M0 0 C2.64 0 5.28 0 8 0 C8 7.92 8 15.84 8 24 C16.91 24 25.82 24 35 24 C34.67 16.08 34.34 8.16 34 0 C36.31 0 38.62 0 41 0 C41 17.82 41 35.64 41 54 C39.02 54 37.04 54 35 54 C35 45.75 35 37.5 35 29 C26.09 29 17.18 29 8 29 C8 37.25 8 45.5 8 54 C5.69 54 3.38 54 1 54 C0.67 36.18 0.34 18.36 0 0 Z " fill="#0071B9" transform="translate(390,294)"></path><path d="M0 0 C0.33 10.56 0.66 21.12 1 32 C11.5527864 23.08699678 11.5527864 23.08699678 13 18 C15.97 18 18.94 18 22 18 C17.88380164 22.91935902 13.59589638 27.52647956 9 32 C10.53266697 37.28259215 14.01394365 40.70993686 17.625 44.6875 C18.82991244 46.02078391 20.03066735 47.35784082 21.2265625 48.69921875 C21.75846191 49.28533936 22.29036133 49.87145996 22.83837891 50.4753418 C24 52 24 52 24 54 C17.07373692 54.76047237 17.07373692 54.76047237 14.32470703 52.81347656 C12.78031051 51.15420757 11.41260113 49.44562001 10.0625 47.625 C9.58232422 47.02171875 9.10214844 46.4184375 8.60742188 45.796875 C6.88448701 43.60979266 5.24831552 41.49663104 4 39 C3.01 39 2.02 39 1 39 C0.67 43.95 0.34 48.9 0 54 C-1.98 54 -3.96 54 -6 54 C-6.33 36.84 -6.66 19.68 -7 2 C-3 0 -3 0 0 0 Z " fill="#0071B9" transform="translate(587,293)"></path><path d="M0 0 C3.07365786 1.80803404 4.43019732 2.86039464 6 6 C6.15378852 7.95774069 6.24971463 9.92017352 6.31640625 11.8828125 C6.35830078 13.04941406 6.40019531 14.21601563 6.44335938 15.41796875 C6.48267578 16.64128906 6.52199219 17.86460937 6.5625 19.125 C6.60568359 20.35605469 6.64886719 21.58710938 6.69335938 22.85546875 C6.79968704 25.90352853 6.90171781 28.9516719 7 32 C8.32 32 9.64 32 11 32 C10.67 33.65 10.34 35.3 10 37 C4.58461538 37.36923077 4.58461538 37.36923077 1.625 35.5 C1.08875 35.005 0.5525 34.51 0 34 C-0.54527344 34.31195313 -1.09054687 34.62390625 -1.65234375 34.9453125 C-6.89764088 37.6531411 -10.3903822 38.54417119 -16.1171875 36.828125 C-18.76388719 35.66401642 -19.82256238 34.64923464 -21 32 C-22.28146996 27.88098941 -22.25039293 24.62637996 -20.33203125 20.67578125 C-16.43737262 15.77604942 -9.87017542 13.8799807 -3.875 13.1875 C-2.59625 13.125625 -1.3175 13.06375 0 13 C-0.46853622 10.00594421 -0.46853622 10.00594421 -2 7 C-7.68076317 4.21758539 -12.21137655 5.29360307 -18 7 C-17.8125 4.625 -17.8125 4.625 -17 2 C-11.63665796 -0.81166226 -5.90180759 -0.68568719 0 0 Z M-6.375 17.8125 C-7.35210937 17.96332031 -8.32921875 18.11414063 -9.3359375 18.26953125 C-12.17407297 19.04772968 -13.24190052 19.68640981 -15 22 C-15.93152267 24.794568 -16.19970932 26.36456125 -15.3125 29.1875 C-13.18094333 32.13107826 -11.07125149 32.80772409 -7.5625 33.4375 C-4.81448607 33.14084763 -4.81448607 33.14084763 -2.1875 31.1875 C0.98175178 26.56944741 0.42858505 22.43826802 0 17 C-2.13937018 17 -4.27034509 17.47277224 -6.375 17.8125 Z " fill="#0071B9" transform="translate(519,310)"></path><path d="M0 0 C2.8203125 1.76953125 2.8203125 1.76953125 5 5 C5.72205491 9.06146455 5.74514735 13.07003007 5.75 17.1875 C5.78306538 19.36854366 5.81935799 21.54954156 5.859375 23.73046875 C5.86420898 24.69364014 5.86904297 25.65681152 5.87402344 26.64916992 C5.84447056 29.02120016 5.84447056 29.02120016 7 31 C9.02463255 31.65213292 9.02463255 31.65213292 11 32 C10.34 33.65 9.68 35.3 9 37 C3.58461538 37.36923077 3.58461538 37.36923077 0.625 35.5 C0.08875 35.005 -0.4475 34.51 -1 34 C-1.70125 34.474375 -2.4025 34.94875 -3.125 35.4375 C-7.39014269 37.75551233 -10.43711853 38.36773682 -15.1875 37.25 C-18.6380177 35.71643658 -20.3227407 34.3545186 -22 31 C-22.57007126 24.04513064 -22.57007126 24.04513064 -20.5 20.25 C-14.66294635 14.99665172 -8.74314069 13.35847874 -1 13 C-1.95498092 8.81040203 -1.95498092 8.81040203 -4.71875 5.75 C-7.71927987 4.76352443 -9.67924467 5.216981 -12.75 5.875 C-13.73484375 6.07867187 -14.7196875 6.28234375 -15.734375 6.4921875 C-16.48203125 6.65976562 -17.2296875 6.82734375 -18 7 C-18.33 5.68 -18.66 4.36 -19 3 C-13.0358229 -0.25318751 -6.7305795 -1.39379848 0 0 Z M-15 21 C-16.43735246 23.87470493 -16.38172649 25.81894588 -16 29 C-14.04913936 31.610911 -14.04913936 31.610911 -11 33 C-7.5678992 32.94082585 -5.14404363 32.81003549 -2.30078125 30.796875 C-0.46292112 28.25808923 -0.70328388 26.40695679 -0.8125 23.3125 C-0.83957031 22.31863281 -0.86664062 21.32476562 -0.89453125 20.30078125 C-0.92933594 19.54152344 -0.96414063 18.78226562 -1 18 C-8.49841166 17.53341904 -8.49841166 17.53341904 -15 21 Z " fill="#0071B9" transform="translate(633,310)"></path><path d="M0 0 C3.52685678 3.52685678 5.15294356 6.31214801 5.3125 11.25 C5.26781479 15.87491971 4.04490209 18.4331147 1 22 C-3.4642687 24.97617913 -7.76724742 24.74006072 -13 24 C-16.25948481 22.38950652 -18.22926325 20.05100466 -20.375 17.125 C-21.61149736 12.92090896 -21.58615511 9.32656157 -19.8125 5.3125 C-14.11083212 -1.96204178 -8.44723718 -3.19876996 0 0 Z " fill="#0071B9" transform="translate(482,110)"></path><path d="M0 0 C2.31 0 4.62 0 7 0 C7.29769287 0.72179443 7.59538574 1.44358887 7.90209961 2.18725586 C9.24466362 5.4384053 10.5910287 8.68796694 11.9375 11.9375 C12.40607422 13.07380859 12.87464844 14.21011719 13.35742188 15.38085938 C13.80537109 16.46044922 14.25332031 17.54003906 14.71484375 18.65234375 C15.12855225 19.65257568 15.54226074 20.65280762 15.96850586 21.68334961 C16.79701292 23.91646275 16.79701292 23.91646275 18 25 C19.51186959 21.58846447 21.00739131 18.1700013 22.5 14.75 C22.92925781 13.78191406 23.35851562 12.81382812 23.80078125 11.81640625 C24.20683594 10.88183594 24.61289062 9.94726562 25.03125 8.984375 C25.40830078 8.12553711 25.78535156 7.26669922 26.17382812 6.38183594 C27.2184728 3.79032288 27.2184728 3.79032288 27 0 C29.31 0 31.62 0 34 0 C33.41116438 4.75524547 31.99811916 8.80499476 30.05859375 13.1484375 C29.77146011 13.80582916 29.48432648 14.46322083 29.18849182 15.14053345 C28.27782992 17.22153764 27.35784482 19.29826275 26.4375 21.375 C25.81513261 22.79269559 25.19338142 24.21066187 24.57226562 25.62890625 C23.05528646 29.0891091 21.52993703 32.54550813 20 36 C18.35 36 16.7 36 15 36 C10.87015771 28.32335198 7.42925288 20.43463165 4.125 12.375 C3.51700562 10.89845947 3.51700562 10.89845947 2.89672852 9.39208984 C2.52088623 8.46605957 2.14504395 7.5400293 1.7578125 6.5859375 C1.4189502 5.7511084 1.08008789 4.9162793 0.73095703 4.05615234 C0 2 0 2 0 0 Z " fill="#0071B9" transform="translate(463,311)"></path><path d="M0 0 C1.76953125 1.5546875 1.76953125 1.5546875 3 3 C2.34 4.32 1.68 5.64 1 7 C0.113125 6.67 -0.77375 6.34 -1.6875 6 C-4.70923347 5.08777857 -6.88373706 4.81669042 -10 5 C-10.66 6.65 -11.32 8.3 -12 10 C-8.90408588 13.76893892 -5.54793804 15.23327224 -1.12109375 16.97265625 C1.14998874 18.07264648 2.4635457 19.00116447 4 21 C4.40962682 25.23281052 4.4477592 27.88060201 2.875 31.8125 C0.0033609 35.16274561 -2.80240289 36.71706422 -7.21484375 37.28515625 C-11.98971481 37.46788842 -15.09903866 37.0200991 -19 34 C-18.34 32.35 -17.68 30.7 -17 29 C-16.154375 29.33 -15.30875 29.66 -14.4375 30 C-10.79010784 31.06105954 -7.77725336 31.15109013 -4 31 C-3.23283149 28.14921909 -3.23283149 28.14921909 -3 25 C-5.66488328 21.39928815 -9.54549682 20.56248547 -13.625 19.16015625 C-16.37796412 17.8153695 -17.46735629 16.63161332 -19 14 C-19.51562907 9.94862871 -19.46673001 7.78985078 -17.375 4.25 C-12.05961414 -0.78562871 -7.00956377 -2.10954491 0 0 Z " fill="#0071B9" transform="translate(574,310)"></path><path d="M0 0 C0 4.29 0 8.58 0 13 C3.3 13 6.6 13 10 13 C10 14.32 10 15.64 10 17 C6.7 17 3.4 17 0 17 C0.08691553 20.58451638 0.19379708 24.16651557 0.3125 27.75 C0.33505859 28.76578125 0.35761719 29.7815625 0.38085938 30.828125 C0.41630859 31.8078125 0.45175781 32.7875 0.48828125 33.796875 C0.51446533 34.69760742 0.54064941 35.59833984 0.56762695 36.52636719 C1.08170894 39.4674619 1.95303497 40.84782414 4 43 C7.08777172 44.28008262 7.08777172 44.28008262 10 45 C9.67 46.32 9.34 47.64 9 49 C0.18700114 49.44811859 0.18700114 49.44811859 -4 46 C-6.12687064 42.69153456 -6.2349689 40.0269521 -6.1953125 36.140625 C-6.18564453 34.46806641 -6.18564453 34.46806641 -6.17578125 32.76171875 C-6.15902344 31.60285156 -6.14226563 30.44398438 -6.125 29.25 C-6.11597656 28.07566406 -6.10695313 26.90132813 -6.09765625 25.69140625 C-6.07410063 22.79406464 -6.04120652 19.89713559 -6 17 C-7.65 17 -9.3 17 -11 17 C-10.67 15.68 -10.34 14.36 -10 13 C-8.68 13 -7.36 13 -6 13 C-6 9.37 -6 5.74 -6 2 C-1 0 -1 0 0 0 Z " fill="#0071B9" transform="translate(541,298)"></path><path d="M0 0 C0.33 0.99 0.66 1.98 1 3 C2.2684375 2.2575 2.2684375 2.2575 3.5625 1.5 C7.33796832 -0.14747708 9.92817548 -0.24430947 14 0 C15.125 3.75 15.125 3.75 14 6 C13.09507812 5.93039062 13.09507812 5.93039062 12.171875 5.859375 C11.37265625 5.82328125 10.5734375 5.7871875 9.75 5.75 C8.56664062 5.68039062 8.56664062 5.68039062 7.359375 5.609375 C4.06412366 6.15494641 3.06680319 7.41009063 1 10 C0.36085024 12.98687874 0.36085024 12.98687874 0.390625 16.296875 C0.35839844 17.50214844 0.32617188 18.70742188 0.29296875 19.94921875 C0.27169922 21.83060547 0.27169922 21.83060547 0.25 23.75 C0.22035156 25.01972656 0.19070313 26.28945313 0.16015625 27.59765625 C0.08946049 30.73183485 0.03675988 33.86526956 0 37 C-1.98 37 -3.96 37 -6 37 C-6.495 19.675 -6.495 19.675 -7 2 C-3 0 -3 0 0 0 Z " fill="#0071B9" transform="translate(445,311)"></path></svg>